HIERARCHY
ROOT Hip
{
	OFFSET -0.977214 -0.207589 0.080445
	CHANNELS 6 Xposition Yposition Zposition Xrotation Yrotation Zrotation
	JOINT LowerSpine
	{
		OFFSET 0.043089 0.148310 0.259456
		CHANNELS 6 Xposition Yposition Zposition Xrotation Yrotation Zrotation
		JOINT MiddleSpine
		{
			OFFSET -0.003106 -0.010691 0.236774
			CHANNELS 3 Xrotation Yrotation Zrotation
			JOINT Chest
			{
				OFFSET 0.016375 0.056363 0.292978
				CHANNELS 3 Xrotation Yrotation Zrotation
				JOINT Neck
				{
					OFFSET 0.003447 0.011866 0.660220
					CHANNELS 6 Xposition Yposition Zposition Xrotation Yrotation Zrotation
					JOINT Head
					{
						OFFSET -0.028296 -0.097383 0.372834
						CHANNELS 3 Xrotation Yrotation Zrotation
						End Site
						{
							OFFSET -0.000446 -0.001535 0.053543
						}
					}
				}
				JOINT LClavicle
				{
					OFFSET 0.002796 -0.205398 0.637146
					CHANNELS 6 Xposition Yposition Zposition Xrotation Yrotation Zrotation
					JOINT LShoulder
					{
						OFFSET 0.377805 0.044227 0.091389
						CHANNELS 3 Xrotation Yrotation Zrotation
						JOINT LForearm
						{
							OFFSET 0.796328 -0.223894 -0.002932
							CHANNELS 3 Xrotation Yrotation Zrotation
							JOINT LHand
							{
								OFFSET 0.663791 -0.188549 0.002002
								CHANNELS 3 Xrotation Yrotation Zrotation
								JOINT LFinger1
								{
									OFFSET 0.236095 -0.145946 0.023389
									CHANNELS 6 Xposition Yposition Zposition Xrotation Yrotation Zrotation
									JOINT LFinger11
									{
										OFFSET 0.091146 -0.044836 -0.024394
										CHANNELS 3 Xrotation Yrotation Zrotation
										JOINT LFinger12
										{
											OFFSET 0.062222 -0.030612 -0.016657
											CHANNELS 3 Xrotation Yrotation Zrotation
											End Site
											{
												OFFSET 0.046410 -0.022050 -0.015140
											}
										}
									}
								}
								JOINT LFinger2
								{
									OFFSET 0.258847 -0.081939 0.027009
									CHANNELS 6 Xposition Yposition Zposition Xrotation Yrotation Zrotation
									JOINT LFinger21
									{
										OFFSET 0.118980 -0.033806 0.000344
										CHANNELS 3 Xrotation Yrotation Zrotation
										JOINT LFinger22
										{
											OFFSET 0.065955 -0.018728 0.000210
											CHANNELS 3 Xrotation Yrotation Zrotation
											End Site
											{
												OFFSET 0.051292 -0.014975 -0.003773
											}
										}
									}
								}
								JOINT LFinger3
								{
									OFFSET 0.264000 -0.013326 0.018026
									CHANNELS 6 Xposition Yposition Zposition Xrotation Yrotation Zrotation
									JOINT LFinger31
									{
										OFFSET 0.109740 -0.024564 -0.005681
										CHANNELS 3 Xrotation Yrotation Zrotation
										JOINT LFinger32
										{
											OFFSET 0.062539 -0.013986 -0.003217
											CHANNELS 3 Xrotation Yrotation Zrotation
											End Site
											{
												OFFSET 0.051700 -0.012405 -0.006529
											}
										}
									}
								}
								JOINT LFinger4
								{
									OFFSET 0.258550 0.034330 -0.018138
									CHANNELS 6 Xposition Yposition Zposition Xrotation Yrotation Zrotation
									JOINT LFinger41
									{
										OFFSET 0.071610 -0.000960 -0.014398
										CHANNELS 3 Xrotation Yrotation Zrotation
										JOINT LFinger42
										{
											OFFSET 0.052515 -0.000696 -0.010542
											CHANNELS 3 Xrotation Yrotation Zrotation
											End Site
											{
												OFFSET 0.051659 -0.002958 -0.013857
											}
										}
									}
								}
								JOINT LFinger0
								{
									OFFSET 0.041427 -0.055711 -0.041874
									CHANNELS 6 Xposition Yposition Zposition Xrotation Yrotation Zrotation
									JOINT LFinger01
									{
										OFFSET 0.077248 -0.103312 -0.033827
										CHANNELS 3 Xrotation Yrotation Zrotation
										JOINT LFinger02
										{
											OFFSET 0.051500 -0.065849 -0.024270
											CHANNELS 3 Xrotation Yrotation Zrotation
											End Site
											{
												OFFSET 0.032705 -0.039819 -0.014636
											}
										}
									}
								}
							}
						}
					}
				}
				JOINT RClavicle
				{
					OFFSET -0.112419 -0.171921 0.637146
					CHANNELS 6 Xposition Yposition Zposition Xrotation Yrotation Zrotation
					JOINT RShoulder
					{
						OFFSET -0.295344 0.239824 0.091406
						CHANNELS 3 Xrotation Yrotation Zrotation
						JOINT RForearm
						{
							OFFSET -0.792329 0.237661 -0.002931
							CHANNELS 3 Xrotation Yrotation Zrotation
							JOINT RHand
							{
								OFFSET -0.661484 0.196486 0.002002
								CHANNELS 3 Xrotation Yrotation Zrotation
								JOINT RFinger1
								{
									OFFSET -0.277544 0.003283 0.023391
									CHANNELS 6 Xposition Yposition Zposition Xrotation Yrotation Zrotation
									JOINT RFinger11
									{
										OFFSET -0.100981 0.010983 -0.024394
										CHANNELS 3 Xrotation Yrotation Zrotation
										JOINT RFinger12
										{
											OFFSET -0.068939 0.007494 -0.016660
											CHANNELS 3 Xrotation Yrotation Zrotation
											End Site
											{
												OFFSET -0.051001 0.006250 -0.015141
											}
										}
									}
								}
								JOINT RFinger2
								{
									OFFSET -0.262456 0.069516 0.027011
									CHANNELS 6 Xposition Yposition Zposition Xrotation Yrotation Zrotation
									JOINT RFinger21
									{
										OFFSET -0.118575 0.035211 0.000344
										CHANNELS 3 Xrotation Yrotation Zrotation
										JOINT RFinger22
										{
											OFFSET -0.065722 0.019532 0.000210
											CHANNELS 3 Xrotation Yrotation Zrotation
											End Site
											{
												OFFSET -0.051331 0.014840 -0.003773
											}
										}
									}
								}
								JOINT RFinger3
								{
									OFFSET -0.230043 0.130210 0.018026
									CHANNELS 6 Xposition Yposition Zposition Xrotation Yrotation Zrotation
									JOINT RFinger31
									{
										OFFSET -0.105818 0.038062 -0.005681
										CHANNELS 3 Xrotation Yrotation Zrotation
										JOINT RFinger32
										{
											OFFSET -0.060297 0.021702 -0.003217
											CHANNELS 3 Xrotation Yrotation Zrotation
											End Site
											{
												OFFSET -0.050298 0.017228 -0.006529
											}
										}
									}
								}
								JOINT RFinger4
								{
									OFFSET -0.199905 0.167525 -0.018139
									CHANNELS 6 Xposition Yposition Zposition Xrotation Yrotation Zrotation
									JOINT RFinger41
									{
										OFFSET -0.060976 0.037561 -0.014395
										CHANNELS 3 Xrotation Yrotation Zrotation
										JOINT RFinger42
										{
											OFFSET -0.044713 0.027552 -0.010539
											CHANNELS 3 Xrotation Yrotation Zrotation
											End Site
											{
												OFFSET -0.045202 0.025183 -0.013857
											}
										}
									}
								}
								JOINT RFinger0
								{
									OFFSET -0.064829 -0.024838 -0.041871
									CHANNELS 6 Xposition Yposition Zposition Xrotation Yrotation Zrotation
									JOINT RFinger01
									{
										OFFSET -0.120580 -0.045840 -0.033833
										CHANNELS 3 Xrotation Yrotation Zrotation
										JOINT RFinger02
										{
											OFFSET -0.078765 -0.028003 -0.024268
											CHANNELS 3 Xrotation Yrotation Zrotation
											End Site
											{
												OFFSET -0.048950 -0.016096 -0.014636
											}
										}
									}
								}
							}
						}
					}
				}
			}
		}
	}
	JOINT RThigh
	{
		OFFSET -0.287569 0.109752 0.117281
		CHANNELS 6 Xposition Yposition Zposition Xrotation Yrotation Zrotation
		JOINT RShin
		{
			OFFSET -0.021328 0.006197 -1.207231
			CHANNELS 3 Xrotation Yrotation Zrotation
			JOINT RFoot
			{
				OFFSET 0.000000 0.000001 -1.185430
				CHANNELS 3 Xrotation Yrotation Zrotation
				JOINT RToe
				{
					OFFSET -0.076012 -0.261633 -0.130290
					CHANNELS 3 Xrotation Yrotation Zrotation
					End Site
					{
						OFFSET -0.014945 -0.051440 0.000000
					}
				}
			}
		}
	}
	JOINT LThigh
	{
		OFFSET 0.301605 -0.061419 0.117289
		CHANNELS 6 Xposition Yposition Zposition Xrotation Yrotation Zrotation
		JOINT LShin
		{
			OFFSET 0.021330 -0.006197 -1.207240
			CHANNELS 3 Xrotation Yrotation Zrotation
			JOINT LFoot
			{
				OFFSET 0.000000 0.000000 -1.185430
				CHANNELS 3 Xrotation Yrotation Zrotation
				JOINT LToe
				{
					OFFSET -0.076014 -0.261636 -0.130290
					CHANNELS 3 Xrotation Yrotation Zrotation
					End Site
					{
						OFFSET -0.014945 -0.051440 0.000000
					}
				}
			}
		}
	}
}
MOTION
Frames: 4
Frame Time: 0.041667
-1.865301 -0.164222 2.267915 -12.410326 -13.769612 -137.785324 0.043089 0.148310 0.259456 -0.000004 0.000000 -0.000005 -3.430676 -2.052351 -5.705427 -12.125542 -5.421350 -19.467070 0.003448 0.011866 0.660220 -12.408301 -1.306094 -1.467636 -0.844503 1.432335 0.044519 0.002796 -0.205398 0.637145 0.990938 3.406565 -0.029470 39.312421 -11.161235 -22.315114 0.039371 -0.320290 -148.480444 0.000001 0.000010 0.000003 0.236096 -0.145945 0.023389 0.000003 -0.000003 -0.000002 0.000010 0.000000 -0.000003 0.000009 0.000003 0.000008 0.258847 -0.081938 0.027009 -0.000000 -0.000005 -0.000009 -0.000004 -0.000002 -0.000011 -0.000009 -0.000003 0.000010 0.264001 -0.013326 0.018026 -0.000002 0.000003 -0.000001 0.000002 0.000007 -0.000011 -0.000005 -0.000006 0.000006 0.258549 0.034330 -0.018138 0.000011 -0.000013 -0.000001 -0.000016 -0.000005 0.000009 0.000004 0.000000 0.000001 0.041427 -0.055711 -0.041873 0.000006 -0.000009 -0.000006 -0.000006 -0.000003 0.000011 -0.000002 0.000000 0.000013 -0.112419 -0.171921 0.637145 -0.282084 -0.970813 -0.002378 15.002394 -9.154143 -1.059514 -0.000004 0.000004 0.110678 0.000003 0.000004 -0.000037 -0.277543 0.003283 0.023392 -0.000003 -0.000005 -0.000002 0.000003 -0.000001 -0.000010 0.000002 0.000008 0.000001 -0.262455 0.069516 0.027012 -0.000002 0.000004 0.000000 0.000005 0.000001 0.000005 -0.000003 -0.000001 -0.000001 -0.230042 0.130210 0.018027 -0.000003 -0.000001 0.000009 -0.000003 0.000007 0.000010 -0.000000 0.000002 -0.000005 -0.199905 0.167526 -0.018137 -0.000007 0.000007 0.000018 -0.000006 -0.000011 -0.000018 -0.000012 -0.000007 0.000008 -0.064830 -0.024837 -0.041870 0.000004 -0.000020 0.000030 -0.000027 -0.000005 0.000012 0.000035 0.000032 -0.000046 -0.267002 0.134113 0.052983 -3.071991 11.941155 1.874644 12.577840 -3.620162 0.399115 -0.051211 -0.235669 0.503175 -14.196224 4.075516 0.507699 0.293067 0.003218 0.323809 -14.680793 -3.906900 5.387210 -0.112229 0.032599 0.000029 -3.081839 0.950427 -0.079961 0.000001 -0.000004 0.000009 
-1.865301 -0.164222 2.267915 -12.410326 -13.769612 -137.785324 0.043089 0.148310 0.259456 -0.000004 0.000000 -0.000005 -3.430676 -2.052351 -5.705427 -12.125542 -5.421350 -19.467070 0.003448 0.011866 0.660220 -12.408301 -1.306094 -1.467636 -0.844503 1.432335 0.044519 0.002796 -0.205398 0.637145 0.990938 3.406565 -0.029470 39.312421 -11.161235 -22.315114 0.039371 -0.320290 -148.480444 0.000001 0.000010 0.000003 0.236096 -0.145945 0.023389 0.000003 -0.000003 -0.000002 0.000010 0.000000 -0.000003 0.000009 0.000003 0.000008 0.258847 -0.081938 0.027009 -0.000000 -0.000005 -0.000009 -0.000004 -0.000002 -0.000011 -0.000009 -0.000003 0.000010 0.264001 -0.013326 0.018026 -0.000002 0.000003 -0.000001 0.000002 0.000007 -0.000011 -0.000005 -0.000006 0.000006 0.258549 0.034330 -0.018138 0.000011 -0.000013 -0.000001 -0.000016 -0.000005 0.000009 0.000004 0.000000 0.000001 0.041427 -0.055711 -0.041873 0.000006 -0.000009 -0.000006 -0.000006 -0.000003 0.000011 -0.000002 0.000000 0.000013 -0.112419 -0.171921 0.637145 -0.282084 -0.970813 -0.002378 15.002394 -9.154143 -1.059514 -0.000004 0.000004 0.110678 0.000003 0.000004 -0.000037 -0.277543 0.003283 0.023392 -0.000003 -0.000005 -0.000002 0.000003 -0.000001 -0.000010 0.000002 0.000008 0.000001 -0.262455 0.069516 0.027012 -0.000002 0.000004 0.000000 0.000005 0.000001 0.000005 -0.000003 -0.000001 -0.000001 -0.230042 0.130210 0.018027 -0.000003 -0.000001 0.000009 -0.000003 0.000007 0.000010 -0.000000 0.000002 -0.000005 -0.199905 0.167526 -0.018137 -0.000007 0.000007 0.000018 -0.000006 -0.000011 -0.000018 -0.000012 -0.000007 0.000008 -0.064830 -0.024837 -0.041870 0.000004 -0.000020 0.000030 -0.000027 -0.000005 0.000012 0.000035 0.000032 -0.000046 -0.267002 0.134113 0.052983 -3.071991 11.941155 1.874644 12.577840 -3.620162 0.399115 -0.051211 -0.235669 0.503175 -14.196224 4.075516 0.507699 0.293067 0.003218 0.323809 -14.680793 -3.906900 5.387210 -0.112229 0.032599 0.000029 -3.081839 0.950427 -0.079961 0.000001 -0.000004 0.000009 
-1.855451 -0.165092 2.270657 -11.421552 -13.756214 -137.197300 0.043089 0.148310 0.259457 -0.000002 -0.000000 -0.000005 -3.006056 -2.123646 -5.585116 -10.742019 -5.851679 -19.046123 0.003447 0.011866 0.660221 -13.649084 -1.372813 -1.610007 -1.117565 1.205576 0.035344 0.002796 -0.205398 0.637146 1.062684 3.652518 -0.033890 37.746518 -10.390155 -22.731638 0.037950 -0.318890 -148.744212 0.000002 0.000009 0.000000 0.236096 -0.145946 0.023389 0.000008 -0.000003 -0.000002 0.000008 0.000001 -0.000003 0.000009 0.000002 0.000009 0.258847 -0.081939 0.027009 0.000004 -0.000005 -0.000007 0.000000 -0.000004 -0.000006 -0.000009 -0.000001 0.000010 0.264001 -0.013326 0.018027 0.000001 0.000003 0.000001 0.000003 0.000007 -0.000011 0.000002 -0.000006 0.000005 0.258549 0.034330 -0.018138 0.000012 -0.000015 0.000003 -0.000012 -0.000004 0.000013 0.000003 -0.000005 -0.000001 0.041427 -0.055712 -0.041874 0.000010 -0.000008 -0.000000 -0.000012 0.000001 0.000013 -0.000005 -0.000004 0.000015 -0.112419 -0.171922 0.637145 -0.310798 -1.069619 -0.002900 13.858617 -9.295605 -1.435528 -0.000278 -0.000285 0.052121 0.000000 0.000003 -0.000037 -0.277543 0.003283 0.023392 0.000000 -0.000005 -0.000000 0.000003 0.000005 -0.000010 0.000004 0.000010 -0.000000 -0.262455 0.069517 0.027012 -0.000002 0.000004 0.000002 0.000004 0.000001 0.000005 -0.000006 -0.000001 -0.000001 -0.230043 0.130210 0.018027 -0.000006 -0.000000 0.000009 -0.000007 0.000007 0.000008 -0.000003 -0.000000 -0.000001 -0.199905 0.167526 -0.018138 -0.000012 0.000006 0.000017 -0.000008 -0.000011 -0.000014 -0.000015 -0.000009 0.000009 -0.064830 -0.024837 -0.041871 0.000002 -0.000021 0.000033 -0.000028 -0.000006 0.000012 0.000042 0.000030 -0.000047 -0.267008 0.134160 0.053132 -2.165404 11.399010 1.206155 11.827683 -3.407944 0.353126 0.004643 -0.619595 1.250129 -13.752700 3.951082 0.476657 0.293063 0.003187 0.323767 -13.797595 -4.706797 5.003649 -0.470113 0.136575 0.000558 -2.934819 1.129134 -0.497864 0.000009 -0.000004 0.000003 
-1.857304 -0.164236 2.269245 -11.601580 -13.773631 -137.315312 0.043088 0.148310 0.259457 -0.000003 -0.000001 -0.000005 -3.092842 -2.115532 -5.618624 -11.028401 -5.783653 -19.163942 0.003447 0.011866 0.660220 -13.456416 -1.375796 -1.592701 -1.176481 1.307478 0.041231 0.002796 -0.205398 0.637146 1.053389 3.620660 -0.033295 38.195261 -10.603057 -22.638524 0.036932 -0.318341 -148.806190 0.000003 0.000011 0.000000 0.236096 -0.145945 0.023388 0.000009 -0.000002 -0.000004 0.000008 -0.000000 -0.000003 0.000012 0.000002 0.000008 0.258847 -0.081939 0.027009 0.000004 -0.000006 -0.000010 0.000000 -0.000004 -0.000011 -0.000003 -0.000003 0.000007 0.264001 -0.013326 0.018026 -0.000003 0.000004 -0.000001 0.000011 0.000004 -0.000010 -0.000001 -0.000007 0.000004 0.258549 0.034330 -0.018139 0.000010 -0.000013 0.000001 -0.000017 -0.000003 0.000010 0.000004 -0.000001 0.000001 0.041427 -0.055712 -0.041874 0.000008 -0.000010 -0.000001 -0.000006 0.000000 0.000010 -0.000005 -0.000003 0.000017 -0.112420 -0.171921 0.637145 -0.299945 -1.032243 -0.002696 14.345243 -9.302198 -1.380617 0.000500 0.000589 0.230516 0.000004 0.000004 -0.000039 -0.277543 0.003283 0.023392 -0.000005 -0.000003 -0.000001 0.000007 -0.000001 -0.000010 0.000007 0.000010 -0.000000 -0.262455 0.069517 0.027012 -0.000006 0.000006 0.000004 0.000002 0.000002 0.000005 -0.000004 -0.000002 -0.000001 -0.230043 0.130210 0.018026 -0.000007 0.000000 0.000008 -0.000006 0.000008 0.000008 -0.000003 0.000000 0.000000 -0.199905 0.167526 -0.018138 -0.000015 0.000009 0.000021 -0.000008 -0.000012 -0.000017 -0.000016 -0.000010 0.000013 -0.064829 -0.024837 -0.041871 0.000002 -0.000019 0.000031 -0.000027 -0.000004 0.000010 0.000038 0.000026 -0.000042 -0.267019 0.134238 0.053382 -2.364221 11.491806 1.385546 12.061966 -3.474297 0.367196 -0.107404 -0.521366 1.110651 -13.812373 3.967840 0.480782 0.293056 0.003135 0.323696 -13.952995 -4.633667 5.095187 -0.456041 0.132486 0.000517 -2.866710 1.094666 -0.471038 0.000018 -0.000007 0.000003 
